<svg width="56" height="67" viewBox="0 0 56 67" fill="none" xmlns="http://www.w3.org/2000/svg">
<rect width="56" height="67" fill="#D7D7D7"/>
<g clip-path="url(#clip0_0_1)">
<rect width="1920" height="7071" transform="translate(-839 -1597)" fill="white"/>
<rect x="-39" y="-32" width="320" height="386" rx="30" fill="#FFF3E1"/>
<rect x="-0.607422" y="18.5874" width="28.6095" height="24.0034" rx="3" transform="rotate(-17.1408 -0.607422 18.5874)" fill="#FF7449"/>
<path d="M1 55.9945L14.0694 45.139C15.0424 44.3445 17.6784 42.9939 20.4382 43.9473C22.6357 44.7063 30.5592 45.9452 34.6796 46.7695C35.9774 47.0291 36.7047 48.2805 36.3989 49.5681V49.5681C36.0987 50.832 34.9105 51.6794 33.6177 51.5515L18.9903 50.1045M36.9535 48.7211L51.3148 43.1683C52.6635 42.6468 54.1803 43.311 54.7118 44.6558V44.6558C55.2179 45.9366 54.6512 47.3909 53.4119 47.9916L32.7475 58.0071C32.329 58.2099 31.877 58.3348 31.4137 58.3756L18.5807 59.5056L13.0079 65.464" stroke="#2F3337" stroke-width="1.3" stroke-linecap="round" stroke-linejoin="round"/>
<path d="M45.3325 15.3102C46.6088 18.4506 46.7567 21.9365 45.751 25.1738C44.7453 28.4111 42.6483 31.1995 39.8171 33.064C36.986 34.9284 33.596 35.7535 30.2247 35.3987C26.8534 35.0439 23.7094 33.5311 21.3285 31.1182C18.9475 28.7052 17.4769 25.5413 17.1672 22.1655C16.8575 18.7898 17.7278 15.4111 19.6299 12.6052C21.5321 9.79919 24.3483 7.73958 27.5987 6.77724C30.8492 5.8149 34.3327 6.00938 37.4559 7.32754M45.3325 15.3102L44.5272 18.8483M45.3325 15.3102L48.2162 17.8841" stroke="#2F3337" stroke-width="1.3" stroke-linecap="round" stroke-linejoin="round"/>
<path d="M32.3918 28.9249C29.0624 26.3272 23.2046 20.8147 24.1829 17.2922C25.089 14.0299 28.1544 13.4978 30.1966 14.7658C31.0915 15.3215 31.8309 16.3636 32.3899 17.0517" stroke="#2F3337" stroke-width="1.3" stroke-linecap="round" stroke-linejoin="round"/>
<path d="M32.3924 28.9234C35.7217 26.3257 41.5796 20.8132 40.6012 17.2906C39.6951 14.0283 36.8597 13.4074 34.5876 14.7643C33.7593 15.259 32.8731 16.265 32.4 17.0392" stroke="#2F3337" stroke-width="1.3" stroke-linecap="round" stroke-linejoin="round"/>
</g>
<defs>
<clipPath id="clip0_0_1">
<rect width="1920" height="7071" fill="white" transform="translate(-839 -1597)"/>
</clipPath>
</defs>
</svg>
